<svg width="96" height="96" xmlns="http://www.w3.org/2000/svg" xmlns:xlink="http://www.w3.org/1999/xlink" xml:space="preserve" overflow="hidden"><defs><clipPath id="clip0"><rect x="0" y="0" width="96" height="96"/></clipPath></defs><g clip-path="url(#clip0)"><path d="M24.985 63.966C24.985 66.7258 22.7478 68.963 19.988 68.963 17.2282 68.963 14.991 66.7258 14.991 63.966 14.991 61.2062 17.2282 58.969 19.988 58.969 22.7478 58.969 24.985 61.2062 24.985 63.966Z"/><path d="M52.9048 63.1657C53.3468 65.8899 51.4968 68.4566 48.7727 68.8986 46.0486 69.3406 43.4819 67.4906 43.0398 64.7665 42.5978 62.0424 44.4478 59.4757 47.1719 59.0336 49.8961 58.5916 52.4628 60.4416 52.9048 63.1657Z"/><path d="M80.954 63.966C80.954 66.7258 78.7168 68.963 75.957 68.963 73.1972 68.963 70.96 66.7258 70.96 63.966 70.96 61.2062 73.1972 58.969 75.957 58.969 78.7168 58.969 80.954 61.2062 80.954 63.966Z"/><path d="M27.984 73.961 27.884 73.961C27.4293 72.1826 25.8195 70.9443 23.984 70.961L15.984 70.961C14.159 70.9751 12.5657 72.2006 12.084 73.961L11.984 73.961C9.77691 73.966 7.98895 75.7539 7.984 77.961L9.984 83.961 29.983 83.961 31.983 77.961C31.9775 75.7545 30.1905 73.967 27.984 73.961Z"/><path d="M55.968 73.961C55.44 72.1898 53.8162 70.972 51.968 70.961L43.968 70.961C42.143 70.9751 40.5497 72.2006 40.068 73.961L39.968 73.961C37.7609 73.966 35.9729 75.7539 35.968 77.961L37.968 83.961 57.967 83.961 59.967 77.961C59.9621 75.7543 58.1747 73.9665 55.968 73.961Z"/><path d="M83.953 73.961C83.425 72.1898 81.8012 70.972 79.953 70.961L71.953 70.961C70.1279 70.9747 68.5344 72.2004 68.053 73.961L67.953 73.961C65.7459 73.966 63.958 75.7539 63.953 77.961L65.953 83.961 85.952 83.961 87.952 77.961C87.9471 75.7543 86.1597 73.9665 83.953 73.961Z"/><path d="M94 13 2 13 2 68 13.094 68C10.8597 64.2063 12.1238 59.3195 15.9176 57.0852 16.1984 56.9198 16.4891 56.7718 16.788 56.642 15.741 54.3288 14.4593 52.1293 12.963 50.078 21.7866 44.0802 28.2719 35.2229 31.325 25L64.675 25C67.7281 35.2229 74.2134 44.0802 83.037 50.078 81.5361 52.1359 80.2503 54.3425 79.2 56.663 83.2269 58.4378 85.0526 63.1409 83.2778 67.1677 83.1519 67.4533 83.0094 67.7312 82.851 68L94 68Z"/></g></svg>